<?xml version="1.0" standalone="no"?>
<!DOCTYPE svg PUBLIC "-//W3C//DTD SVG 20010904//EN"
 "http://www.w3.org/TR/2001/REC-SVG-20010904/DTD/svg10.dtd">
<svg version="1.0" xmlns="http://www.w3.org/2000/svg"
 width="318.000000pt" height="346.000000pt" viewBox="0 0 318.000000 346.000000"
 preserveAspectRatio="xMidYMid meet">
<metadata>
Created by potrace 1.16, written by Peter Selinger 2001-2019
</metadata>
<g transform="translate(0.000000,346.000000) scale(0.100000,-0.100000)"
fill="#000000" stroke="none">
<path d="M2165 3446 c-154 -35 -290 -106 -401 -210 -68 -62 -72 -64 -112 -59
l-42 6 0 73 0 74 48 0 c57 1 91 22 72 45 -17 21 -266 22 -293 1 -17 -13 -17
-15 5 -30 12 -9 42 -16 66 -16 l43 0 -3 -77 -3 -78 -34 -3 c-27 -3 -41 3 -70
31 -172 163 -378 247 -605 247 -273 -1 -496 -106 -660 -313 -109 -136 -165
-296 -173 -488 -7 -155 10 -249 72 -400 l44 -107 -25 -78 c-43 -134 -64 -289
-64 -464 0 -270 52 -491 169 -716 l58 -113 -24 -37 c-52 -75 -76 -152 -81
-261 -6 -123 16 -209 75 -293 147 -210 487 -240 709 -62 l46 38 112 -37 c332
-111 704 -110 1023 2 l84 30 42 -34 c99 -81 198 -111 346 -105 122 5 188 27
267 86 111 85 165 193 172 348 5 115 -9 181 -60 277 l-31 57 50 98 c196 375
232 802 104 1202 l-27 85 37 91 c51 126 69 202 76 319 20 348 -165 662 -478
809 -41 20 -101 43 -134 52 -81 23 -319 28 -400 10z m345 -152 c297 -66 520
-356 520 -676 0 -48 -4 -88 -8 -88 -5 0 -36 36 -71 79 -213 271 -536 478 -873
560 -59 14 -108 30 -108 34 0 11 133 72 189 87 114 30 225 32 351 4z m-1601 6
c85 -11 211 -52 269 -87 l32 -20 -107 -28 c-192 -49 -389 -140 -546 -252 -99
-70 -285 -253 -353 -346 l-49 -69 -7 54 c-25 186 70 431 222 572 119 110 238
159 445 185 6 0 48 -4 94 -9z m936 -275 c192 -34 417 -130 588 -252 104 -74
256 -226 330 -330 121 -170 207 -370 249 -577 29 -143 28 -371 -1 -517 -115
-575 -521 -1003 -1086 -1146 -102 -26 -124 -28 -315 -28 -160 0 -223 4 -289
18 -299 65 -538 193 -746 402 -300 299 -441 682 -413 1115 36 553 388 1028
920 1239 92 36 259 78 363 90 102 12 285 6 400 -14z m-1384 -2587 c82 -80 192
-163 272 -204 26 -13 47 -28 47 -33 0 -22 -96 -46 -185 -46 -78 0 -97 4 -140
27 -131 69 -189 211 -146 361 l14 48 30 -38 c17 -21 65 -73 108 -115z m2421
32 c1 -153 -89 -267 -242 -306 -55 -14 -75 -15 -128 -5 -63 12 -112 29 -112
40 1 3 36 27 80 54 109 65 216 153 308 253 77 83 77 83 85 56 5 -15 9 -56 9
-92z"/>
<path d="M1546 2544 c-14 -14 -16 -71 -16 -484 0 -413 2 -470 16 -484 21 -21
77 -20 96 2 23 25 278 587 278 611 0 46 -63 76 -109 52 -9 -5 -46 -74 -81
-153 l-65 -143 -5 298 c-4 250 -7 299 -20 307 -23 15 -77 12 -94 -6z"/>
</g>
</svg>
