<?xml version="1.0" standalone="no"?>
<!DOCTYPE svg PUBLIC "-//W3C//DTD SVG 20010904//EN"
 "http://www.w3.org/TR/2001/REC-SVG-20010904/DTD/svg10.dtd">
<svg version="1.0" xmlns="http://www.w3.org/2000/svg"
 width="107.000000pt" height="107.000000pt" viewBox="0 0 107.000000 107.000000"
 preserveAspectRatio="xMidYMid meet">
<metadata>
Created by potrace 1.16, written by Peter Selinger 2001-2019
</metadata>
<g transform="translate(0.000000,107.000000) scale(0.100000,-0.100000)"
fill="#000000" stroke="none">
<path d="M370 1037 c-172 -59 -294 -185 -344 -356 -21 -72 -21 -221 0 -292 50
-169 172 -299 337 -357 98 -34 230 -36 333 -4 333 103 476 506 284 799 -70
106 -181 186 -305 219 -80 22 -228 18 -305 -9z m312 -66 c211 -73 344 -287
310 -503 -38 -251 -281 -431 -525 -390 -39 7 -99 27 -134 44 -174 85 -285 297
-253 479 50 285 338 461 602 370z"/>
<path d="M517 924 c-4 -4 -7 -96 -7 -204 0 -258 -2 -256 126 -129 52 51 94
102 94 111 0 35 -36 18 -100 -47 l-65 -66 -5 168 c-4 141 -7 168 -20 171 -9 1
-19 0 -23 -4z"/>
</g>
</svg>
