<?xml version="1.0" standalone="no"?>
<!DOCTYPE svg PUBLIC "-//W3C//DTD SVG 20010904//EN"
 "http://www.w3.org/TR/2001/REC-SVG-20010904/DTD/svg10.dtd">
<svg version="1.0" xmlns="http://www.w3.org/2000/svg"
 width="106.000000pt" height="131.000000pt" viewBox="0 0 106.000000 131.000000"
 preserveAspectRatio="xMidYMid meet">
<metadata>
Created by potrace 1.16, written by Peter Selinger 2001-2019
</metadata>
<g transform="translate(0.000000,131.000000) scale(0.100000,-0.100000)"
fill="#000000" stroke="none">
<path d="M465 1296 c-76 -33 -111 -125 -80 -204 10 -24 16 -44 14 -46 -2 -1
-26 -11 -54 -21 -27 -10 -67 -29 -87 -42 -45 -28 -50 -28 -65 -4 -10 15 -9 22
2 31 19 16 19 20 -5 49 l-20 23 -75 -56 -75 -57 17 -24 c19 -26 38 -32 49 -14
4 7 15 1 29 -17 l23 -29 -25 -29 c-63 -75 -112 -220 -113 -332 0 -28 9 -86 20
-128 84 -331 443 -491 758 -338 34 16 85 55 127 97 108 107 155 219 155 370 0
151 -51 277 -156 381 -34 34 -88 74 -122 91 l-61 31 42 4 c30 3 49 0 66 -14
15 -11 41 -18 70 -18 64 0 101 36 101 99 0 23 -5 51 -10 62 -15 27 -68 52
-102 47 -21 -3 -32 0 -39 14 -22 41 -114 62 -160 37 -16 -8 -25 -7 -37 4 -52
46 -128 59 -187 33z m129 -82 c37 -37 35 -86 -3 -125 -54 -54 -135 -25 -148
53 -5 32 -1 41 25 68 40 40 88 41 126 4z m69 -244 c197 -61 329 -238 329 -441
0 -203 -125 -372 -323 -439 -53 -18 -81 -21 -160 -18 -87 3 -104 7 -172 41
-240 118 -331 383 -216 624 49 102 192 215 306 242 68 16 167 12 236 -9z"/>
<path d="M532 532 c-7 -5 -10 -15 -7 -23 8 -21 344 -212 362 -205 34 13 -1 43
-157 133 -189 109 -181 105 -198 95z"/>
</g>
</svg>
