<?xml version="1.0" standalone="no"?>
<!DOCTYPE svg PUBLIC "-//W3C//DTD SVG 20010904//EN"
 "http://www.w3.org/TR/2001/REC-SVG-20010904/DTD/svg10.dtd">
<svg version="1.0" xmlns="http://www.w3.org/2000/svg"
 width="106.000000pt" height="122.000000pt" viewBox="0 0 106.000000 122.000000"
 preserveAspectRatio="xMidYMid meet">
<metadata>
Created by potrace 1.16, written by Peter Selinger 2001-2019
</metadata>
<g transform="translate(0.000000,122.000000) scale(0.100000,-0.100000)"
fill="#000000" stroke="none">
<path d="M440 1185 c0 -28 4 -35 20 -35 17 0 20 -7 20 -43 l0 -42 -62 -12
c-97 -19 -183 -67 -264 -147 -114 -114 -160 -238 -151 -401 5 -103 31 -185 81
-260 103 -155 258 -238 441 -239 150 0 261 43 368 144 137 128 195 323 152
508 -46 196 -213 359 -405 394 l-60 12 0 43 c0 36 3 43 20 43 16 0 20 7 20 35
l0 35 -90 0 -90 0 0 -35z m285 -235 c122 -58 216 -173 251 -305 69 -256 -114
-526 -386 -568 -169 -26 -369 71 -457 221 -111 189 -73 431 90 578 100 89 173
115 322 111 102 -3 115 -5 180 -37z"/>
<path d="M354 457 c-182 -107 -194 -115 -194 -132 0 -30 44 -13 194 74 l153
88 43 -99 c45 -102 61 -125 80 -113 16 10 8 36 -49 159 -37 78 -55 106 -68
105 -10 0 -81 -37 -159 -82z"/>
</g>
</svg>
